<svg xmlns="http://www.w3.org/2000/svg" xmlns:xlink="http://www.w3.org/1999/xlink" version="1.0" x="0" y="0" width="2400" height="621.540938912951" viewBox="45.08569595336914 92.65027114868164 249.82860809326172 64.69946151733399" preserveAspectRatio="xMidYMid meet" color-interpolation-filters="sRGB"><g><defs><linearGradient id="92" x1="0%" y1="0%" x2="100%" y2="0%"><stop offset="0%" stop-color="#fa71cd"></stop> <stop offset="100%" stop-color="#9b59b6"></stop></linearGradient><linearGradient id="93" x1="0%" y1="0%" x2="100%" y2="0%"><stop offset="0%" stop-color="#f9d423"></stop> <stop offset="100%" stop-color="#f83600"></stop></linearGradient><linearGradient id="94" x1="0%" y1="0%" x2="100%" y2="0%"><stop offset="0%" stop-color="#0064d2"></stop> <stop offset="100%" stop-color="#1cb0f6"></stop></linearGradient><linearGradient id="95" x1="0%" y1="0%" x2="100%" y2="0%"><stop offset="0%" stop-color="#f00978"></stop> <stop offset="100%" stop-color="#3f51b1"></stop></linearGradient><linearGradient id="96" x1="0%" y1="0%" x2="100%" y2="0%"><stop offset="0%" stop-color="#7873f5"></stop> <stop offset="100%" stop-color="#ec77ab"></stop></linearGradient><linearGradient id="97" x1="0%" y1="0%" x2="100%" y2="0%"><stop offset="0%" stop-color="#f9d423"></stop> <stop offset="100%" stop-color="#e14fad"></stop></linearGradient><linearGradient id="98" x1="0%" y1="0%" x2="100%" y2="0%"><stop offset="0%" stop-color="#009efd"></stop> <stop offset="100%" stop-color="#2af598"></stop></linearGradient><linearGradient id="99" x1="0%" y1="0%" x2="100%" y2="0%"><stop offset="0%" stop-color="#ffcc00"></stop> <stop offset="100%" stop-color="#00b140"></stop></linearGradient><linearGradient id="100" x1="0%" y1="0%" x2="100%" y2="0%"><stop offset="0%" stop-color="#d51007"></stop> <stop offset="100%" stop-color="#ff8177"></stop></linearGradient><linearGradient id="102" x1="0%" y1="0%" x2="100%" y2="0%"><stop offset="0%" stop-color="#a2b6df"></stop> <stop offset="100%" stop-color="#0c3483"></stop></linearGradient><linearGradient id="103" x1="0%" y1="0%" x2="100%" y2="0%"><stop offset="0%" stop-color="#7ac5d8"></stop> <stop offset="100%" stop-color="#eea2a2"></stop></linearGradient><linearGradient id="104" x1="0%" y1="0%" x2="100%" y2="0%"><stop offset="0%" stop-color="#00ecbc"></stop> <stop offset="100%" stop-color="#007adf"></stop></linearGradient><linearGradient id="105" x1="0%" y1="0%" x2="100%" y2="0%"><stop offset="0%" stop-color="#b88746"></stop> <stop offset="100%" stop-color="#fdf5a6"></stop></linearGradient></defs><g fill="#333" class="icon-text-wrapper icon-svg-group iconsvg" transform="translate(47.534996032714844,95.09956932067871)"><g class="iconsvg-imagesvg" transform="translate(0,0)"><g><rect fill="#333" fill-opacity="0" stroke-width="2" x="0" y="0" width="60" height="59.80086312579111" class="image-rect"></rect> <svg x="0" y="0" width="60" height="59.80086312579111" filtersec="colorsb6485170992" class="image-svg-svg primary" style="overflow: visible;"><svg xmlns="http://www.w3.org/2000/svg" viewBox="0 0 120.40000915527344 120"><path fill="#ff515b" d="M0 0v98.22h24.16V21.78h24.16v25.74h23.36V21.78h24.56V0H0z"></path><path fill="#377ca3" d="M120.4 120V21.78H96.24v76.44H72.08V72.47H48.71v25.75H24.16V120h96.24z"></path></svg></svg> </g></g> <g transform="translate(67,12.222429275512695)"><g fill-rule="" class="tp-name iconsvg-namesvg" transform="translate(0,0)"><g transform="scale(1)"><g><path d="M10.28-14.12L13.11-14.12 13.11 0 10.28 0 10.28-6.01 4.23-6.01 4.23 0 1.4 0 1.4-14.12 4.23-14.12 4.23-8.32 10.28-8.32 10.28-14.12ZM15.18-5.65Q15.18-7.34 15.85-8.66 16.53-9.98 17.69-10.68 18.86-11.39 20.29-11.39L20.29-11.39Q21.55-11.39 22.49-10.89 23.43-10.38 24-9.61L24-9.61 24-11.21 26.85-11.21 26.85 0 24 0 24-1.64Q23.45-0.85 22.49-0.33 21.53 0.18 20.27 0.18L20.27 0.18Q18.86 0.18 17.69-0.55 16.53-1.27 15.85-2.6 15.18-3.93 15.18-5.65L15.18-5.65ZM24-5.6Q24-6.64 23.59-7.38 23.19-8.11 22.5-8.51 21.81-8.9 21.02-8.9L21.02-8.9Q20.23-8.9 19.57-8.52 18.9-8.13 18.48-7.4 18.07-6.66 18.07-5.65L18.07-5.65Q18.07-4.63 18.48-3.87 18.9-3.12 19.58-2.71 20.25-2.31 21.02-2.31L21.02-2.31Q21.81-2.31 22.5-2.7 23.19-3.1 23.59-3.83 24-4.57 24-5.6L24-5.6ZM32.46-9.57Q33-10.38 33.96-10.89 34.92-11.39 36.16-11.39L36.16-11.39Q37.59-11.39 38.76-10.68 39.92-9.98 40.6-8.67 41.28-7.37 41.28-5.65L41.28-5.65Q41.28-3.93 40.6-2.6 39.92-1.27 38.76-0.55 37.59 0.18 36.16 0.18L36.16 0.18Q34.9 0.18 33.96-0.31 33.02-0.81 32.46-1.6L32.46-1.6 32.46 0 29.62 0 29.62-14.97 32.46-14.97 32.46-9.57ZM38.38-5.65Q38.38-6.66 37.97-7.4 37.55-8.13 36.88-8.52 36.2-8.9 35.41-8.9L35.41-8.9Q34.64-8.9 33.96-8.51 33.28-8.11 32.87-7.37 32.46-6.62 32.46-5.6L32.46-5.6Q32.46-4.59 32.87-3.84 33.28-3.1 33.96-2.7 34.64-2.31 35.41-2.31L35.41-2.31Q36.2-2.31 36.88-2.71 37.55-3.12 37.97-3.86 38.38-4.61 38.38-5.65L38.38-5.65ZM44.78-12.54Q44.03-12.54 43.53-13.02 43.04-13.5 43.04-14.2L43.04-14.2Q43.04-14.91 43.53-15.39 44.03-15.86 44.78-15.86L44.78-15.86Q45.53-15.86 46.02-15.39 46.52-14.91 46.52-14.2L46.52-14.2Q46.52-13.5 46.02-13.02 45.53-12.54 44.78-12.54L44.78-12.54ZM43.34-11.21L46.17-11.21 46.17 0 43.34 0 43.34-11.21ZM54.77-8.88L52.26-8.88 52.26-3.46Q52.26-2.89 52.54-2.64 52.81-2.39 53.46-2.39L53.46-2.39 54.77-2.39 54.77 0 52.99 0Q49.41 0 49.41-3.48L49.41-3.48 49.41-8.88 48.08-8.88 48.08-11.21 49.41-11.21 49.41-13.98 52.26-13.98 52.26-11.21 54.77-11.21 54.77-8.88ZM56.86-8.42L65.44-8.42 65.44-6.03 56.86-6.03 56.86-8.42ZM73.49 0.14Q72.01 0.14 70.83-0.36 69.64-0.87 68.96-1.82 68.27-2.77 68.25-4.07L68.25-4.07 71.28-4.07Q71.34-3.2 71.9-2.69 72.46-2.19 73.43-2.19L73.43-2.19Q74.42-2.19 74.99-2.66 75.55-3.14 75.55-3.91L75.55-3.91Q75.55-4.53 75.17-4.94 74.78-5.34 74.21-5.57 73.63-5.81 72.62-6.09L72.62-6.09Q71.24-6.5 70.38-6.89 69.52-7.28 68.91-8.08 68.29-8.88 68.29-10.22L68.29-10.22Q68.29-11.47 68.92-12.4 69.54-13.33 70.68-13.83 71.81-14.33 73.27-14.33L73.27-14.33Q75.45-14.33 76.82-13.26 78.18-12.2 78.33-10.3L78.33-10.3 75.21-10.3Q75.17-11.03 74.59-11.5 74.02-11.98 73.06-11.98L73.06-11.98Q72.23-11.98 71.74-11.55 71.24-11.13 71.24-10.32L71.24-10.32Q71.24-9.75 71.62-9.38 71.99-9 72.55-8.77 73.1-8.54 74.12-8.24L74.12-8.24Q75.49-7.83 76.36-7.43 77.23-7.02 77.86-6.21 78.49-5.4 78.49-4.09L78.49-4.09Q78.49-2.95 77.9-1.98 77.31-1.01 76.18-0.44 75.05 0.14 73.49 0.14L73.49 0.14ZM86.74-8.88L84.23-8.88 84.23-3.46Q84.23-2.89 84.51-2.64 84.78-2.39 85.43-2.39L85.43-2.39 86.74-2.39 86.74 0 84.96 0Q81.38 0 81.38-3.48L81.38-3.48 81.38-8.88 80.04-8.88 80.04-11.21 81.38-11.21 81.38-13.98 84.23-13.98 84.23-11.21 86.74-11.21 86.74-8.88ZM91.62-9.47Q92.17-10.36 93.05-10.87 93.93-11.37 95.06-11.37L95.06-11.37 95.06-8.4 94.31-8.4Q92.97-8.4 92.3-7.77 91.62-7.14 91.62-5.58L91.62-5.58 91.62 0 88.79 0 88.79-11.21 91.62-11.21 91.62-9.47ZM107.38-5.85Q107.38-5.24 107.3-4.75L107.3-4.75 99.11-4.75Q99.21-3.54 99.96-2.85 100.7-2.17 101.8-2.17L101.8-2.17Q103.37-2.17 104.04-3.52L104.04-3.52 107.1-3.52Q106.61-1.9 105.24-0.86 103.86 0.18 101.86 0.18L101.86 0.18Q100.24 0.18 98.95-0.54 97.67-1.25 96.95-2.57 96.23-3.88 96.23-5.6L96.23-5.6Q96.23-7.34 96.94-8.66 97.65-9.98 98.92-10.68 100.2-11.39 101.86-11.39L101.86-11.39Q103.46-11.39 104.72-10.7 105.98-10.02 106.68-8.75 107.38-7.49 107.38-5.85L107.38-5.85ZM99.13-6.66L104.45-6.66Q104.43-7.75 103.66-8.41 102.89-9.06 101.78-9.06L101.78-9.06Q100.72-9.06 100.01-8.43 99.29-7.79 99.13-6.66L99.13-6.66ZM108.72-5.65Q108.72-7.34 109.39-8.66 110.07-9.98 111.24-10.68 112.4-11.39 113.84-11.39L113.84-11.39Q115.09-11.39 116.03-10.89 116.97-10.38 117.54-9.61L117.54-9.61 117.54-11.21 120.39-11.21 120.39 0 117.54 0 117.54-1.64Q116.99-0.85 116.03-0.33 115.07 0.18 113.82 0.18L113.82 0.18Q112.4 0.18 111.24-0.55 110.07-1.27 109.39-2.6 108.72-3.93 108.72-5.65L108.72-5.65ZM117.54-5.6Q117.54-6.64 117.13-7.38 116.73-8.11 116.04-8.51 115.35-8.9 114.56-8.9L114.56-8.9Q113.77-8.9 113.11-8.52 112.44-8.13 112.02-7.4 111.61-6.66 111.61-5.65L111.61-5.65Q111.61-4.63 112.02-3.87 112.44-3.12 113.12-2.71 113.79-2.31 114.56-2.31L114.56-2.31Q115.35-2.31 116.04-2.7 116.73-3.1 117.13-3.83 117.54-4.57 117.54-5.6L117.54-5.6ZM133.48 0L129.8 0 126-4.78 126 0 123.16 0 123.16-14.97 126-14.97 126-6.45 129.76-11.21 133.44-11.21 128.5-5.58 133.48 0ZM136.23 0.14Q135.47 0.14 134.97-0.33 134.47-0.81 134.47-1.52L134.47-1.52Q134.47-2.23 134.97-2.7 135.47-3.18 136.23-3.18L136.23-3.18Q136.98-3.18 137.47-2.7 137.95-2.23 137.95-1.52L137.95-1.52Q137.95-0.81 137.47-0.33 136.98 0.14 136.23 0.14L136.23 0.14ZM139.51-5.65Q139.51-7.34 140.19-8.66 140.87-9.98 142.03-10.68 143.19-11.39 144.63-11.39L144.63-11.39Q145.89-11.39 146.83-10.89 147.77-10.38 148.33-9.61L148.33-9.61 148.33-11.21 151.19-11.21 151.19 0 148.33 0 148.33-1.64Q147.79-0.85 146.83-0.33 145.87 0.18 144.61 0.18L144.61 0.18Q143.19 0.18 142.03-0.55 140.87-1.27 140.19-2.6 139.51-3.93 139.51-5.65L139.51-5.65ZM148.33-5.6Q148.33-6.64 147.93-7.38 147.52-8.11 146.84-8.51 146.15-8.9 145.36-8.9L145.36-8.9Q144.57-8.9 143.9-8.52 143.24-8.13 142.82-7.4 142.41-6.66 142.41-5.65L142.41-5.65Q142.41-4.63 142.82-3.87 143.24-3.12 143.91-2.71 144.59-2.31 145.36-2.31L145.36-2.31Q146.15-2.31 146.84-2.7 147.52-3.1 147.93-3.83 148.33-4.57 148.33-5.6L148.33-5.6ZM156.79-9.59Q157.34-10.36 158.3-10.88 159.26-11.39 160.49-11.39L160.49-11.39Q161.93-11.39 163.09-10.68 164.26-9.98 164.94-8.67 165.61-7.37 165.61-5.65L165.61-5.65Q165.61-3.93 164.94-2.6 164.26-1.27 163.09-0.55 161.93 0.18 160.49 0.18L160.49 0.18Q159.26 0.18 158.32-0.32 157.38-0.83 156.79-1.6L156.79-1.6 156.79 5.34 153.96 5.34 153.96-11.21 156.79-11.21 156.79-9.59ZM162.72-5.65Q162.72-6.66 162.31-7.4 161.89-8.13 161.21-8.52 160.54-8.9 159.75-8.9L159.75-8.9Q158.98-8.9 158.3-8.51 157.62-8.11 157.21-7.37 156.79-6.62 156.79-5.6L156.79-5.6Q156.79-4.59 157.21-3.84 157.62-3.1 158.3-2.7 158.98-2.31 159.75-2.31L159.75-2.31Q160.54-2.31 161.21-2.71 161.89-3.12 162.31-3.86 162.72-4.61 162.72-5.65L162.72-5.65ZM170.51-9.59Q171.06-10.36 172.02-10.88 172.98-11.39 174.21-11.39L174.21-11.39Q175.65-11.39 176.81-10.68 177.98-9.98 178.65-8.67 179.33-7.37 179.33-5.65L179.33-5.65Q179.33-3.93 178.65-2.6 177.98-1.27 176.81-0.55 175.65 0.18 174.21 0.18L174.21 0.18Q172.98 0.18 172.04-0.32 171.1-0.83 170.51-1.6L170.51-1.6 170.51 5.34 167.68 5.34 167.68-11.21 170.51-11.21 170.51-9.59ZM176.44-5.65Q176.44-6.66 176.02-7.4 175.61-8.13 174.93-8.52 174.25-8.9 173.46-8.9L173.46-8.9Q172.7-8.9 172.02-8.51 171.34-8.11 170.93-7.37 170.51-6.62 170.51-5.6L170.51-5.6Q170.51-4.59 170.93-3.84 171.34-3.1 172.02-2.7 172.7-2.31 173.46-2.31L173.46-2.31Q174.25-2.31 174.93-2.71 175.61-3.12 176.02-3.86 176.44-4.61 176.44-5.65L176.44-5.65Z" transform="translate(-1.399999976158142, 15.859999656677246)"></path></g> </g></g> <g fill-rule="" class="tp-slogan iconsvg-slogansvg" fill="#333" transform="translate(3.7700042724609375,27.200002670288086)"><rect width="0"></rect> <rect x="173.38999938964844" width="0"></rect> <g transform="translate(0,0)"><g transform="scale(1)"><path d="M1.09-1.62L0.37-1.12C0.84-0.28 1.56 0.14 2.54 0.14C2.93 0.14 3.26 0.08 3.53-0.05C3.81-0.18 4.03-0.35 4.21-0.58C4.38-0.80 4.51-1.06 4.59-1.36C4.67-1.66 4.72-1.98 4.72-2.32L4.72-7.87L3.71-7.87L3.71-2.41C3.71-1.81 3.60-1.38 3.40-1.12C3.19-0.86 2.87-0.73 2.45-0.73C2.17-0.73 1.92-0.80 1.69-0.94C1.47-1.08 1.27-1.31 1.09-1.62ZM6.84-7.87L6.84 0L11.50 0L11.50-0.85L7.84-0.85L7.84-3.71L10.82-3.71L10.82-4.56L7.84-4.56L7.84-7.03L11.38-7.03L11.38-7.87ZM13.16-7.87L13.16 0L15.18 0C15.77 0 16.30-0.09 16.75-0.27C17.21-0.45 17.59-0.71 17.90-1.05C18.22-1.39 18.45-1.81 18.61-2.30C18.77-2.79 18.85-3.35 18.85-3.97C18.85-5.23 18.54-6.19 17.90-6.86C17.27-7.54 16.35-7.87 15.13-7.87ZM15.06-0.82L14.16-0.82L14.16-7.06L15.06-7.06C15.98-7.06 16.67-6.79 17.13-6.26C17.59-5.74 17.82-4.97 17.82-3.97C17.82-2.97 17.59-2.20 17.13-1.64C16.67-1.09 15.98-0.82 15.06-0.82ZM20.54-7.87L20.54 0L25.20 0L25.20-0.85L21.54-0.85L21.54-3.71L24.53-3.71L24.53-4.56L21.54-4.56L21.54-7.03L25.08-7.03L25.08-7.87ZM26.87-7.87L26.87 0L27.82 0L27.82-4.12C27.82-4.53 27.80-4.95 27.77-5.36C27.75-5.77 27.72-6.18 27.68-6.58L27.73-6.58L28.58-4.96L31.44 0L32.47 0L32.47-7.87L31.52-7.87L31.52-3.80C31.52-3.39 31.54-2.97 31.57-2.54C31.59-2.11 31.62-1.70 31.64-1.30L31.60-1.30L30.74-2.93L27.90-7.87ZM38.69-7.03L38.69 0L39.70 0L39.70-7.03L42.07-7.03L42.07-7.87L36.31-7.87L36.31-7.03ZM46.36-3.20L43.99-3.20L44.36-4.40C44.51-4.84 44.64-5.28 44.77-5.72C44.90-6.15 45.02-6.60 45.14-7.06L45.19-7.06C45.32-6.60 45.45-6.15 45.58-5.72C45.70-5.28 45.84-4.84 45.98-4.40ZM46.61-2.40L47.35 0L48.42 0L45.76-7.87L44.63-7.87L41.96 0L42.98 0L43.74-2.40ZM48.96-3.94C48.96-3.30 49.05-2.72 49.22-2.21C49.40-1.71 49.64-1.28 49.96-0.93C50.27-0.58 50.64-0.32 51.07-0.13C51.50 0.05 51.98 0.14 52.50 0.14C53.03 0.14 53.50 0.06 53.92-0.11C54.34-0.29 54.68-0.50 54.94-0.77L54.94-4.08L52.36-4.08L52.36-3.25L54.02-3.25L54.02-1.20C53.86-1.06 53.66-0.94 53.41-0.86C53.15-0.77 52.89-0.73 52.61-0.73C52.18-0.73 51.81-0.81 51.49-0.96C51.16-1.11 50.89-1.33 50.67-1.61C50.45-1.89 50.28-2.23 50.17-2.62C50.05-3.02 49.99-3.46 49.99-3.96C49.99-4.45 50.05-4.89 50.18-5.28C50.30-5.67 50.48-6.01 50.70-6.28C50.92-6.56 51.20-6.77 51.52-6.92C51.84-7.07 52.20-7.14 52.60-7.14C53.00-7.14 53.33-7.07 53.59-6.93C53.85-6.79 54.08-6.62 54.28-6.41L54.84-7.04C54.61-7.28 54.31-7.51 53.95-7.71C53.58-7.91 53.13-8.02 52.58-8.02C52.06-8.02 51.57-7.92 51.13-7.73C50.69-7.55 50.31-7.28 49.99-6.92C49.66-6.57 49.41-6.14 49.23-5.64C49.05-5.14 48.96-4.57 48.96-3.94ZM59.24-7.87L59.24 0L63.90 0L63.90-0.85L60.24-0.85L60.24-3.71L63.23-3.71L63.23-4.56L60.24-4.56L60.24-7.03L63.78-7.03L63.78-7.87ZM65.57-7.87L65.57 0L66.56 0L66.56-7.87ZM68.72-7.87L68.72 0L69.67 0L69.67-4.12C69.67-4.53 69.66-4.95 69.63-5.36C69.60-5.77 69.57-6.18 69.54-6.58L69.59-6.58L70.44-4.96L73.30 0L74.33 0L74.33-7.87L73.38-7.87L73.38-3.80C73.38-3.39 73.39-2.97 73.42-2.54C73.45-2.11 73.48-1.70 73.50-1.30L73.45-1.30L72.60-2.93L69.76-7.87ZM78.91-7.87L78.91 0L81.42 0C81.86 0 82.26-0.05 82.63-0.14C83.00-0.24 83.32-0.38 83.58-0.58C83.84-0.77 84.05-1.01 84.19-1.30C84.34-1.58 84.41-1.92 84.41-2.30C84.41-2.85 84.25-3.28 83.93-3.59C83.61-3.90 83.16-4.10 82.58-4.19L82.58-4.24C83.05-4.36 83.39-4.57 83.62-4.89C83.84-5.21 83.95-5.56 83.95-5.95C83.95-6.30 83.89-6.59 83.75-6.83C83.62-7.08 83.44-7.28 83.20-7.43C82.97-7.58 82.68-7.69 82.35-7.76C82.02-7.84 81.65-7.87 81.25-7.87ZM81.07-4.51L79.91-4.51L79.91-7.08L81.12-7.08C81.74-7.08 82.20-6.99 82.51-6.80C82.81-6.61 82.97-6.30 82.97-5.87C82.97-5.43 82.82-5.09 82.53-4.86C82.24-4.63 81.75-4.51 81.07-4.51ZM81.28-0.79L79.91-0.79L79.91-3.77L81.28-3.77C81.97-3.77 82.50-3.65 82.87-3.43C83.24-3.20 83.42-2.84 83.42-2.35C83.42-1.82 83.24-1.42 82.86-1.17C82.48-0.92 81.96-0.79 81.28-0.79ZM85.97-7.87L85.97 0L86.96 0L86.96-7.87ZM89.15-1.72L88.55-1.02C88.89-0.66 89.30-0.38 89.77-0.17C90.24 0.04 90.76 0.14 91.31 0.14C91.72 0.14 92.10 0.09 92.42-0.03C92.75-0.15 93.03-0.31 93.26-0.51C93.50-0.71 93.67-0.95 93.80-1.22C93.92-1.50 93.98-1.79 93.98-2.10C93.98-2.39 93.94-2.64 93.86-2.86C93.77-3.08 93.66-3.27 93.52-3.44C93.37-3.60 93.20-3.75 93.00-3.87C92.80-3.99 92.59-4.10 92.36-4.20L91.25-4.68C91.09-4.74 90.93-4.81 90.78-4.89C90.63-4.97 90.49-5.05 90.36-5.15C90.23-5.25 90.13-5.37 90.05-5.50C89.98-5.63 89.94-5.80 89.94-5.99C89.94-6.35 90.07-6.63 90.34-6.83C90.61-7.04 90.96-7.14 91.40-7.14C91.77-7.14 92.10-7.07 92.39-6.94C92.69-6.81 92.95-6.63 93.19-6.40L93.73-7.04C93.45-7.33 93.11-7.57 92.71-7.75C92.31-7.93 91.88-8.02 91.40-8.02C91.04-8.02 90.71-7.96 90.41-7.86C90.11-7.76 89.85-7.61 89.63-7.42C89.41-7.23 89.24-7.01 89.12-6.76C88.99-6.50 88.93-6.22 88.93-5.93C88.93-5.64 88.98-5.39 89.08-5.17C89.17-4.95 89.30-4.76 89.45-4.60C89.60-4.44 89.77-4.30 89.96-4.19C90.16-4.08 90.34-3.98 90.53-3.90L91.66-3.41C91.84-3.32 92.01-3.24 92.17-3.16C92.33-3.08 92.47-2.99 92.59-2.89C92.70-2.79 92.79-2.67 92.86-2.53C92.93-2.39 92.96-2.22 92.96-2.02C92.96-1.63 92.82-1.32 92.53-1.09C92.24-0.85 91.84-0.73 91.32-0.73C90.91-0.73 90.52-0.82 90.14-1.00C89.76-1.18 89.43-1.42 89.15-1.72ZM95.39-1.72L94.79-1.02C95.13-0.66 95.54-0.38 96.01-0.17C96.48 0.04 97.00 0.14 97.55 0.14C97.96 0.14 98.34 0.09 98.66-0.03C98.99-0.15 99.27-0.31 99.50-0.51C99.74-0.71 99.91-0.95 100.04-1.22C100.16-1.50 100.22-1.79 100.22-2.10C100.22-2.39 100.18-2.64 100.10-2.86C100.01-3.08 99.90-3.27 99.76-3.44C99.61-3.60 99.44-3.75 99.24-3.87C99.04-3.99 98.83-4.10 98.60-4.20L97.49-4.68C97.33-4.74 97.17-4.81 97.02-4.89C96.87-4.97 96.73-5.05 96.60-5.15C96.47-5.25 96.37-5.37 96.29-5.50C96.22-5.63 96.18-5.80 96.18-5.99C96.18-6.35 96.31-6.63 96.58-6.83C96.85-7.04 97.20-7.14 97.64-7.14C98.01-7.14 98.34-7.07 98.63-6.94C98.93-6.81 99.19-6.63 99.43-6.40L99.97-7.04C99.69-7.33 99.35-7.57 98.95-7.75C98.55-7.93 98.12-8.02 97.64-8.02C97.28-8.02 96.95-7.96 96.65-7.86C96.35-7.76 96.09-7.61 95.87-7.42C95.65-7.23 95.48-7.01 95.36-6.76C95.23-6.50 95.17-6.22 95.17-5.93C95.17-5.64 95.22-5.39 95.32-5.17C95.41-4.95 95.54-4.76 95.69-4.60C95.84-4.44 96.01-4.30 96.20-4.19C96.40-4.08 96.58-3.98 96.77-3.90L97.90-3.41C98.08-3.32 98.25-3.24 98.41-3.16C98.57-3.08 98.71-2.99 98.83-2.89C98.94-2.79 99.03-2.67 99.10-2.53C99.17-2.39 99.20-2.22 99.20-2.02C99.20-1.63 99.06-1.32 98.77-1.09C98.48-0.85 98.08-0.73 97.56-0.73C97.15-0.73 96.76-0.82 96.38-1.00C96.00-1.18 95.67-1.42 95.39-1.72ZM101.32-3.94C101.32-3.30 101.40-2.72 101.57-2.21C101.75-1.71 101.99-1.28 102.29-0.93C102.60-0.58 102.97-0.32 103.39-0.13C103.81 0.05 104.26 0.14 104.76 0.14C105.26 0.14 105.71 0.04 106.10-0.16C106.50-0.36 106.85-0.64 107.16-1.00L106.60-1.61C106.34-1.33 106.07-1.11 105.79-0.96C105.50-0.81 105.17-0.73 104.78-0.73C104.41-0.73 104.07-0.81 103.77-0.96C103.47-1.11 103.22-1.33 103.01-1.61C102.80-1.89 102.64-2.23 102.52-2.62C102.41-3.02 102.35-3.46 102.35-3.96C102.35-4.45 102.41-4.89 102.53-5.28C102.65-5.67 102.82-6.01 103.03-6.28C103.25-6.56 103.51-6.77 103.81-6.92C104.12-7.07 104.46-7.14 104.83-7.14C105.17-7.14 105.46-7.07 105.71-6.94C105.97-6.81 106.20-6.63 106.40-6.41L106.97-7.04C106.74-7.30 106.44-7.53 106.08-7.72C105.72-7.92 105.30-8.02 104.82-8.02C104.32-8.02 103.85-7.92 103.42-7.73C102.99-7.55 102.62-7.28 102.31-6.92C102.00-6.57 101.76-6.14 101.58-5.64C101.40-5.14 101.32-4.57 101.32-3.94ZM108.62-7.87L108.62 0L109.62 0L109.62-3.71L113.28-3.71L113.28 0L114.29 0L114.29-7.87L113.28-7.87L113.28-4.57L109.62-4.57L109.62-7.87ZM116.45-7.87L116.45 0L121.10 0L121.10-0.85L117.44-0.85L117.44-3.71L120.43-3.71L120.43-4.56L117.44-4.56L117.44-7.03L120.98-7.03L120.98-7.87ZM122.77-7.87L122.77 0L123.72 0L123.72-4.12C123.72-4.53 123.71-4.95 123.68-5.36C123.65-5.77 123.62-6.18 123.59-6.58L123.64-6.58L124.49-4.96L127.34 0L128.38 0L128.38-7.87L127.43-7.87L127.43-3.80C127.43-3.39 127.44-2.97 127.47-2.54C127.50-2.11 127.52-1.70 127.55-1.30L127.50-1.30L126.65-2.93L123.80-7.87ZM132.96-7.87L132.96 0L135.47 0C135.91 0 136.31-0.05 136.68-0.14C137.05-0.24 137.36-0.38 137.63-0.58C137.89-0.77 138.10-1.01 138.24-1.30C138.38-1.58 138.46-1.92 138.46-2.30C138.46-2.85 138.30-3.28 137.98-3.59C137.66-3.90 137.21-4.10 136.63-4.19L136.63-4.24C137.10-4.36 137.44-4.57 137.66-4.89C137.89-5.21 138.00-5.56 138.00-5.95C138.00-6.30 137.93-6.59 137.80-6.83C137.67-7.08 137.49-7.28 137.25-7.43C137.01-7.58 136.73-7.69 136.40-7.76C136.07-7.84 135.70-7.87 135.30-7.87ZM135.12-4.51L133.96-4.51L133.96-7.08L135.17-7.08C135.78-7.08 136.25-6.99 136.55-6.80C136.86-6.61 137.02-6.30 137.02-5.87C137.02-5.43 136.87-5.09 136.58-4.86C136.29-4.63 135.80-4.51 135.12-4.51ZM135.32-0.79L133.96-0.79L133.96-3.77L135.32-3.77C136.02-3.77 136.55-3.65 136.92-3.43C137.29-3.20 137.47-2.84 137.47-2.35C137.47-1.82 137.28-1.42 136.91-1.17C136.53-0.92 136.00-0.79 135.32-0.79ZM140.02-7.87L140.02 0L144.67 0L144.67-0.85L141.01-0.85L141.01-3.71L144.00-3.71L144.00-4.56L141.01-4.56L141.01-7.03L144.55-7.03L144.55-7.87ZM146.36-1.72L145.76-1.02C146.11-0.66 146.52-0.38 146.99-0.17C147.46 0.04 147.97 0.14 148.52 0.14C148.94 0.14 149.31 0.09 149.64-0.03C149.97-0.15 150.25-0.31 150.48-0.51C150.71-0.71 150.89-0.95 151.01-1.22C151.14-1.50 151.20-1.79 151.20-2.10C151.20-2.39 151.16-2.64 151.07-2.86C150.99-3.08 150.88-3.27 150.73-3.44C150.59-3.60 150.42-3.75 150.22-3.87C150.02-3.99 149.80-4.10 149.58-4.20L148.46-4.68C148.30-4.74 148.15-4.81 148.00-4.89C147.84-4.97 147.70-5.05 147.58-5.15C147.45-5.25 147.35-5.37 147.27-5.50C147.19-5.63 147.16-5.80 147.16-5.99C147.16-6.35 147.29-6.63 147.56-6.83C147.83-7.04 148.18-7.14 148.62-7.14C148.99-7.14 149.32-7.07 149.61-6.94C149.90-6.81 150.17-6.63 150.41-6.40L150.95-7.04C150.67-7.33 150.33-7.57 149.93-7.75C149.53-7.93 149.09-8.02 148.62-8.02C148.26-8.02 147.93-7.96 147.63-7.86C147.33-7.76 147.07-7.61 146.85-7.42C146.63-7.23 146.46-7.01 146.33-6.76C146.21-6.50 146.15-6.22 146.15-5.93C146.15-5.64 146.20-5.39 146.29-5.17C146.39-4.95 146.51-4.76 146.66-4.60C146.82-4.44 146.99-4.30 147.18-4.19C147.37-4.08 147.56-3.98 147.74-3.90L148.87-3.41C149.06-3.32 149.23-3.24 149.39-3.16C149.55-3.08 149.69-2.99 149.80-2.89C149.92-2.79 150.01-2.67 150.08-2.53C150.15-2.39 150.18-2.22 150.18-2.02C150.18-1.63 150.04-1.32 149.75-1.09C149.46-0.85 149.06-0.73 148.54-0.73C148.13-0.73 147.73-0.82 147.35-1.00C146.97-1.18 146.64-1.42 146.36-1.72ZM152.60-1.72L152.00-1.02C152.35-0.66 152.76-0.38 153.23-0.17C153.70 0.04 154.21 0.14 154.76 0.14C155.18 0.14 155.55 0.09 155.88-0.03C156.21-0.15 156.49-0.31 156.72-0.51C156.95-0.71 157.13-0.95 157.25-1.22C157.38-1.50 157.44-1.79 157.44-2.10C157.44-2.39 157.40-2.64 157.31-2.86C157.23-3.08 157.12-3.27 156.97-3.44C156.83-3.60 156.66-3.75 156.46-3.87C156.26-3.99 156.04-4.10 155.82-4.20L154.70-4.68C154.54-4.74 154.39-4.81 154.24-4.89C154.08-4.97 153.94-5.05 153.82-5.15C153.69-5.25 153.59-5.37 153.51-5.50C153.43-5.63 153.40-5.80 153.40-5.99C153.40-6.35 153.53-6.63 153.80-6.83C154.07-7.04 154.42-7.14 154.86-7.14C155.23-7.14 155.56-7.07 155.85-6.94C156.14-6.81 156.41-6.63 156.65-6.40L157.19-7.04C156.91-7.33 156.57-7.57 156.17-7.75C155.77-7.93 155.33-8.02 154.86-8.02C154.50-8.02 154.17-7.96 153.87-7.86C153.57-7.76 153.31-7.61 153.09-7.42C152.87-7.23 152.70-7.01 152.57-6.76C152.45-6.50 152.39-6.22 152.39-5.93C152.39-5.64 152.44-5.39 152.53-5.17C152.63-4.95 152.75-4.76 152.90-4.60C153.06-4.44 153.23-4.30 153.42-4.19C153.61-4.08 153.80-3.98 153.98-3.90L155.11-3.41C155.30-3.32 155.47-3.24 155.63-3.16C155.79-3.08 155.93-2.99 156.04-2.89C156.16-2.79 156.25-2.67 156.32-2.53C156.39-2.39 156.42-2.22 156.42-2.02C156.42-1.63 156.28-1.32 155.99-1.09C155.70-0.85 155.30-0.73 154.78-0.73C154.37-0.73 153.97-0.82 153.59-1.00C153.21-1.18 152.88-1.42 152.60-1.72ZM158.99-7.87L158.99 0L163.64 0L163.64-0.85L159.98-0.85L159.98-3.71L162.97-3.71L162.97-4.56L159.98-4.56L159.98-7.03L163.52-7.03L163.52-7.87ZM166.31-4.14L166.31-7.07L167.63-7.07C168.24-7.07 168.72-6.96 169.04-6.76C169.37-6.55 169.54-6.18 169.54-5.66C169.54-5.15 169.37-4.77 169.04-4.52C168.72-4.27 168.24-4.14 167.63-4.14ZM169.63 0L170.76 0L168.77-3.43C169.30-3.57 169.73-3.82 170.05-4.19C170.37-4.56 170.53-5.05 170.53-5.66C170.53-6.07 170.46-6.42 170.33-6.70C170.19-6.98 170.00-7.20 169.76-7.38C169.51-7.56 169.22-7.68 168.88-7.76C168.54-7.83 168.17-7.87 167.77-7.87L165.31-7.87L165.31 0L166.31 0L166.31-3.32L167.74-3.32Z" transform="translate(-0.372, 8.016)"></path></g></g></g></g></g><defs v-gra="od"></defs></g></svg>